Coordinates
version=1
nRows=12
nColumns=33
inDegrees=yes

Units are S.I. units (second, meters, Newtons, ...)
Angles are in degrees.

endheader
time	ground_thorax_rot_x	ground_thorax_rot_y	ground_thorax_rot_z	ground_thorax_tx	ground_thorax_ty	ground_thorax_tz	clav_prot_r	clav_elev_r	scapula_abduction_r	scapula_elevation_r	scapula_upward_rot_r	scapula_winging_r	shoulder_elv_r	plane_of_elev_r	axial_rot_r	elbow_flexion_r	pro_sup_r	wrist_flex_r	wrist_dev_r	clav_prot_l	clav_elev_l	scapula_abduction_l	scapula_elevation_l	scapula_upward_rot_l	scapula_winging_l	shoulder_elv_l	plane_of_elev_l	axial_rot_l	elbow_flexion_l	pro_sup_l	wrist_flex_l	wrist_dev_l
      8.31000000	     40.05165935	      8.40683743	      8.36649164	   -231.88324400	    849.54516889	      5.20513152	     13.41735658	     36.42143453	     37.77351353	     45.00000000	    -45.00000000	  -2245.47297149	  -1182.70771883	    142.57774785	    179.99999979	   2174.27529141	     57.41039780	     23.35848505	      6.11589257	      8.60813178	    -45.00000000	    -39.06264317	     45.00000000	    -45.00000000	   2257.58879918	  -3328.83749612	    134.29487616	   -179.99999979	    371.67131565	   -324.54403200	      4.72850565	    -22.32760319
      8.32000000	     40.02224951	      8.44117417	      8.31521349	   -232.49955423	    849.94397272	      5.37913105	     13.51168845	     36.13878024	     37.63809585	     45.00000000	    -45.00000000	  -2245.69055198	  -1182.75213216	    142.35281880	    179.99999979	   2174.20022064	     57.64394823	     23.27542107	      6.04533224	      8.58433126	    -45.00000000	    -39.14972202	     45.00000000	    -45.00000000	   2257.62790172	  -3328.85620193	    134.35528796	   -179.99999979	    371.70615463	   -323.99764068	      4.62983170	    -22.33671283
      8.33000000	     40.00359789	      8.29389763	      8.17439276	   -233.09037652	    850.30790973	      5.54484943	     13.33022762	     36.47860442	     37.70647422	     45.00000000	    -45.00000000	  -2245.41927273	  -1182.63849793	    142.74616900	    179.99999979	   2174.32948057	     57.83134114	     23.42216558	      6.04646750	      8.67645528	    -45.00000000	    -39.03372495	     45.00000000	    -45.00000000	   2257.68405294	  -3328.83304902	    134.30356710	   -179.99999979	    371.74429466	   -323.44005395	      4.53477111	    -22.34890137
      8.34000000	     39.93545979	      8.32216650	      8.21854679	   -233.65948182	    850.63389437	      5.70156033	     13.41959011	     36.20321322	     37.61407126	     45.00000000	    -45.00000000	  -2245.56760536	  -1182.75698525	    142.57652724	    179.99999979	   2174.22590605	     58.02106617	     23.33693347	      5.99352739	      8.67610714	    -45.00000000	    -39.14880981	     45.00000000	    -45.00000000	   2257.72797854	  -3328.90080258	    134.44182960	   -179.99999979	    371.75163003	   -322.77726027	      4.42788172	    -22.35102751
      8.35000000	     39.90482457	      8.21310898	      8.10679194	   -234.21029334	    850.91866391	      5.84798761	     13.35236473	     36.30329657	     37.53089220	     45.00000000	    -45.00000000	  -2245.54501670	  -1182.69887096	    142.56218955	    179.99999979	   2174.24639595	     58.16641160	     23.38021879	      5.97127149	      8.68716893	    -45.00000000	    -39.09661689	     45.00000000	    -45.00000000	   2257.75972484	  -3328.90630660	    134.42602958	   -179.99999979	    371.78925627	   -322.16065615	      4.33471354	    -22.37574280
      8.36000000	     39.87929486	      8.13716400	      8.01356926	   -234.74835371	    851.16108631	      5.98312960	     13.35232955	     36.20842558	     37.48782423	     45.00000000	    -45.00000000	  -2245.56278665	  -1182.69666566	    142.56127725	    179.99999979	   2174.25106812	     58.29788044	     23.38006025	      5.93070531	      8.69757777	    -45.00000000	    -39.13462224	     45.00000000	    -45.00000000	   2257.79135682	  -3328.92790012	    134.45625482	   -179.99999979	    371.84619783	   -321.56133481	      4.24809602	    -22.40147933
      8.37000000	     39.89932697	      7.96273084	      7.81583621	   -235.27790765	    851.36027076	      6.10556450	     13.29623262	     36.29565759	     37.37694663	     45.00000000	    -45.00000000	  -2245.62362699	  -1182.54565754	    142.50067909	    179.99999979	   2174.46416908	     58.39802280	     23.45136722	      5.85893714	      8.70661937	    -45.00000000	    -39.10335240	     45.00000000	    -45.00000000	   2257.84906273	  -3328.91123289	    134.42230122	   -179.99999979	    371.99215334	   -321.03434876	      4.17679795	    -22.46689988
      8.38000000	     39.81901494	      8.05379728	      7.94759728	   -235.80453302	    851.51719738	      6.21492083	     13.31094003	     36.16017198	     37.38506053	     45.00000000	    -45.00000000	  -2245.57593990	  -1182.75517323	    142.64075829	    179.99999979	   2174.30361749	     58.58410310	     23.40062697	      5.82467994	      8.70701174	    -45.00000000	    -39.13687704	     45.00000000	    -45.00000000	   2257.86508457	  -3329.01986895	    134.56731985	   -179.99999979	    371.94638516	   -320.42202182	      4.08009206	    -22.44946300
      8.39000000	     39.79057168	      7.91593088	      7.84314376	   -236.32511664	    851.63168363	      6.30987794	     13.25902853	     36.26302160	     37.28253659	     45.00000000	    -45.00000000	  -2245.50614693	  -1182.69370318	    142.60138100	    179.99999979	   2174.29892911	     58.78608574	     23.42573791	      5.76183462	      8.75044286	    -45.00000000	    -39.06567150	     45.00000000	    -45.00000000	   2257.87092067	  -3329.03477956	    134.52090661	   -179.99999979	    371.97268050	   -319.79135401	      4.01041267	    -22.48859173
      8.40000000	     39.79743458	      7.65448578	      7.54423966	   -236.84458908	    851.70761741	      6.39216538	     13.24006061	     36.10901178	     37.23543919	     45.00000000	    -45.00000000	  -2245.48948683	  -1182.66076133	    142.51363012	    179.99999979	   2174.30496767	     58.99220324	     23.44563335	      5.69672596	      8.69398230	    -45.00000000	    -39.29670932	     45.00000000	    -45.00000000	   2257.80130156	  -3329.12207123	    134.56324390	   -179.99999979	    372.03823757	   -319.23746988	      3.98311944	    -22.57362942
      8.41000000	     39.71325180	      7.76580185	      7.73266725	   -237.35929885	    851.74772194	      6.46243407	     13.20680935	     36.29068294	     37.18406351	     45.00000000	    -45.00000000	  -2245.35174625	  -1182.78881341	    142.72723141	    179.99999979	   2174.20088934	     59.26400010	     23.42937065	      5.64395036	      8.76311076	    -45.00000000	    -39.11021240	     45.00000000	    -45.00000000	   2257.83863356	  -3329.11889313	    134.58242005	   -179.99999979	    371.92632222	   -318.62676493	      3.87971950	    -22.52897509
      8.42000000	     39.75616039	      7.59811193	      7.51817508	   -237.86792706	    851.75626929	      6.52215483	     13.22183641	     36.06390752	     37.05733683	     45.00000000	    -45.00000000	  -2245.46979904	  -1182.75411372	    142.53733455	    179.99999979	   2174.24155132	     59.52656748	     23.42444335	      5.54537247	      8.74710238	    -45.00000000	    -39.17921821	     45.00000000	    -45.00000000	   2257.82622517	  -3329.19720221	    134.58715860	   -179.99999979	    372.12943193	   -318.03731235	      3.82470824	    -22.63198996
